<svg xmlns="http://www.w3.org/2000/svg" viewBox="0 0 960 540" role="img" aria-labelledby="title desc">
  <title id="title">Evidencia academica Chilete DevPath</title>
  <desc id="desc">Visual abstracto de evidencias academicas organizadas sin datos sensibles.</desc>
  <defs>
    <linearGradient id="bg" x1="0" y1="0" x2="1" y2="1">
      <stop offset="0" stop-color="#0a2636"/>
      <stop offset="1" stop-color="#07151f"/>
    </linearGradient>
  </defs>
  <rect width="960" height="540" rx="34" fill="url(#bg)"/>
  <g opacity=".92">
    <rect x="116" y="92" width="250" height="340" rx="18" fill="#ffffff" opacity=".08" stroke="#68b7c8"/>
    <rect x="356" y="120" width="250" height="340" rx="18" fill="#ffffff" opacity=".1" stroke="#62b889"/>
    <rect x="596" y="86" width="250" height="340" rx="18" fill="#ffffff" opacity=".08" stroke="#d8b64a"/>
  </g>
  <g stroke="#ffffff" stroke-opacity=".34" stroke-width="8" stroke-linecap="round">
    <path d="M158 154h138M158 204h156M158 254h104"/>
    <path d="M398 182h138M398 232h156M398 282h104"/>
    <path d="M638 148h138M638 198h156M638 248h104"/>
  </g>
  <g fill="none" stroke="#d8b64a" stroke-width="10" stroke-linecap="round" stroke-linejoin="round">
    <path d="M405 386l38 38 82-96"/>
  </g>
  <circle cx="760" cy="366" r="54" fill="#2b7a5b" opacity=".85"/>
  <path d="M736 366l18 18 36-44" fill="none" stroke="#ffffff" stroke-width="9" stroke-linecap="round" stroke-linejoin="round"/>
  <text x="72" y="92" fill="#ffffff" font-family="Arial, sans-serif" font-size="34" font-weight="700">Academia</text>
  <text x="72" y="136" fill="#b9d4dc" font-family="Arial, sans-serif" font-size="22">proyectos, contexto y publicacion segura</text>
</svg>
