<svg xmlns="http://www.w3.org/2000/svg" viewBox="0 0 960 540" role="img" aria-labelledby="title desc">
  <title id="title">Ruta de aprendizaje Chilete DevPath</title>
  <desc id="desc">Visual abstracto de un camino tecnico con nodos de aprendizaje.</desc>
  <defs>
    <linearGradient id="bg" x1="0" y1="0" x2="1" y2="1">
      <stop offset="0" stop-color="#07151f"/>
      <stop offset="0.55" stop-color="#12384a"/>
      <stop offset="1" stop-color="#2b7a5b"/>
    </linearGradient>
    <linearGradient id="path" x1="0" y1="1" x2="1" y2="0">
      <stop offset="0" stop-color="#c89d2c"/>
      <stop offset="0.55" stop-color="#62b889"/>
      <stop offset="1" stop-color="#68b7c8"/>
    </linearGradient>
  </defs>
  <rect width="960" height="540" rx="34" fill="url(#bg)"/>
  <path d="M88 456C190 368 250 383 330 300c82-85 76-160 175-196 103-37 208 7 366-52" fill="none" stroke="url(#path)" stroke-width="34" stroke-linecap="round"/>
  <path d="M82 468C188 380 258 394 342 308c83-86 76-164 178-200 105-37 216 6 354-48" fill="none" stroke="#ffffff" stroke-opacity=".15" stroke-width="8" stroke-linecap="round"/>
  <g fill="#f5f7f5" opacity=".92">
    <circle cx="166" cy="388" r="18"/>
    <circle cx="332" cy="300" r="18"/>
    <circle cx="505" cy="106" r="18"/>
    <circle cx="764" cy="76" r="18"/>
  </g>
  <g stroke="#d8b64a" stroke-width="5" fill="none" opacity=".72">
    <path d="M660 218h132M660 264h92M660 310h132"/>
    <path d="M612 205l-42 42 42 42M840 205l42 42-42 42"/>
  </g>
  <text x="72" y="98" fill="#ffffff" font-family="Arial, sans-serif" font-size="34" font-weight="700">Aprendizaje</text>
  <text x="72" y="142" fill="#b9d4dc" font-family="Arial, sans-serif" font-size="22">fundamentos, practica y avance</text>
</svg>
