<svg xmlns="http://www.w3.org/2000/svg" viewBox="0 0 960 540" role="img" aria-labelledby="title desc">
  <title id="title">Clinica Salud Vital</title>
  <desc id="desc">Visual academico para sistema de gestion clinica con datos ficticios.</desc>
  <defs>
    <linearGradient id="bg" x1="0" y1="0" x2="1" y2="1">
      <stop offset="0" stop-color="#07151f"/>
      <stop offset=".52" stop-color="#0f2532"/>
      <stop offset="1" stop-color="#2b7a5b"/>
    </linearGradient>
    <linearGradient id="card" x1="0" y1="0" x2="1" y2="1">
      <stop offset="0" stop-color="#ffffff" stop-opacity=".16"/>
      <stop offset="1" stop-color="#ffffff" stop-opacity=".06"/>
    </linearGradient>
  </defs>
  <rect width="960" height="540" rx="34" fill="url(#bg)"/>
  <rect x="92" y="116" width="776" height="330" rx="26" fill="url(#card)" stroke="#68b7c8" stroke-opacity=".75"/>
  <rect x="132" y="166" width="270" height="214" rx="20" fill="#06131d" opacity=".66"/>
  <rect x="448" y="166" width="370" height="64" rx="16" fill="#ffffff" opacity=".1"/>
  <rect x="448" y="254" width="370" height="64" rx="16" fill="#ffffff" opacity=".08"/>
  <rect x="448" y="342" width="238" height="38" rx="12" fill="#d8b64a" opacity=".3"/>
  <g stroke="#62b889" stroke-width="11" stroke-linecap="round">
    <path d="M268 202v142M197 273h142"/>
  </g>
  <g stroke="#ffffff" stroke-opacity=".34" stroke-width="8" stroke-linecap="round">
    <path d="M482 198h156M482 286h208M482 360h116"/>
  </g>
  <path d="M690 206c28-64 104-64 132 0" fill="none" stroke="#d8b64a" stroke-width="9" stroke-linecap="round"/>
  <text x="72" y="88" fill="#ffffff" font-family="Arial, sans-serif" font-size="34" font-weight="700">Clinica Salud Vital</text>
  <text x="72" y="132" fill="#dcebf2" font-family="Arial, sans-serif" font-size="22">gestion academica con datos ficticios</text>
</svg>
